<mxfile host="app.diagrams.net" modified="2024-03-01T12:36:02.862Z" agent="Mozilla/5.0 (Macintosh; Intel Mac OS X 10_15_7) AppleWebKit/537.36 (KHTML, like Gecko) Chrome/122.0.0.0 Safari/537.36" etag="43jCgpIYW96iA1ismVSk" version="23.1.8" type="github">
  <diagram name="Page-1" id="rk_29sPEm_ESSDSYEcgJ">
    <mxGraphModel dx="2146" dy="1071" grid="1" gridSize="10" guides="1" tooltips="1" connect="1" arrows="1" fold="1" page="0" pageScale="1" pageWidth="827" pageHeight="1169" math="0" shadow="0">
      <root>
        <mxCell id="0" />
        <mxCell id="1" parent="0" />
        <mxCell id="T65hzh6V71PTy8kjOZoc-1" value="&lt;font style=&quot;font-size: 18px;&quot;&gt;master&lt;/font&gt;" style="rounded=1;whiteSpace=wrap;html=1;fillColor=#deeedd;strokeColor=#3A522D;glass=0;shadow=1;dashed=1;strokeWidth=2;autosize=0;comic=0;" parent="1" vertex="1">
          <mxGeometry x="200" y="246" width="120" height="60" as="geometry" />
        </mxCell>
        <mxCell id="T65hzh6V71PTy8kjOZoc-2" value="&lt;font style=&quot;font-size: 18px;&quot;&gt;develop&lt;/font&gt;" style="rounded=1;whiteSpace=wrap;html=1;fillColor=#dae8fc;strokeColor=#6c8ebf;glass=0;shadow=1;dashed=1;strokeWidth=2;autosize=0;comic=0;" parent="1" vertex="1">
          <mxGeometry x="200" y="140" width="120" height="60" as="geometry" />
        </mxCell>
        <mxCell id="T65hzh6V71PTy8kjOZoc-3" value="" style="endArrow=none;html=1;rounded=0;" parent="1" edge="1">
          <mxGeometry width="50" height="50" relative="1" as="geometry">
            <mxPoint x="320" y="282" as="sourcePoint" />
            <mxPoint x="1520" y="282" as="targetPoint" />
          </mxGeometry>
        </mxCell>
        <mxCell id="T65hzh6V71PTy8kjOZoc-4" value="" style="curved=1;endArrow=classic;html=1;rounded=0;exitX=0;exitY=0.5;exitDx=0;exitDy=0;entryX=0;entryY=0.5;entryDx=0;entryDy=0;strokeColor=#3333FF;strokeWidth=2;dashed=1;flowAnimation=1;" parent="1" source="T65hzh6V71PTy8kjOZoc-1" target="T65hzh6V71PTy8kjOZoc-2" edge="1">
          <mxGeometry width="50" height="50" relative="1" as="geometry">
            <mxPoint x="220" y="230" as="sourcePoint" />
            <mxPoint x="270" y="180" as="targetPoint" />
            <Array as="points">
              <mxPoint x="120" y="220" />
            </Array>
          </mxGeometry>
        </mxCell>
        <mxCell id="T65hzh6V71PTy8kjOZoc-5" value="" style="curved=1;endArrow=classic;html=1;rounded=0;dashed=1;endSize=7;strokeWidth=2;strokeColor=#3333FF;exitX=0.5;exitY=0;exitDx=0;exitDy=0;flowAnimation=1;" parent="1" source="T65hzh6V71PTy8kjOZoc-2" edge="1">
          <mxGeometry width="50" height="50" relative="1" as="geometry">
            <mxPoint x="320" y="130" as="sourcePoint" />
            <mxPoint x="370" y="80" as="targetPoint" />
            <Array as="points">
              <mxPoint x="250" y="100" />
              <mxPoint x="320" y="80" />
            </Array>
          </mxGeometry>
        </mxCell>
        <mxCell id="T65hzh6V71PTy8kjOZoc-18" value="" style="group;rounded=0;glass=0;fillColor=none;" parent="1" vertex="1" connectable="0">
          <mxGeometry x="370.0021391704804" y="19.14435117812053" width="171.21786082951962" height="140.85129764375893" as="geometry" />
        </mxCell>
        <mxCell id="T65hzh6V71PTy8kjOZoc-12" value="" style="shape=requiredInterface;html=1;verticalLabelPosition=bottom;sketch=0;rotation=-181;strokeColor=#3333FF;" parent="T65hzh6V71PTy8kjOZoc-18" vertex="1">
          <mxGeometry x="1.2178608295196227" y="0.42564882187946296" width="50" height="140" as="geometry" />
        </mxCell>
        <mxCell id="T65hzh6V71PTy8kjOZoc-16" value="" style="group" parent="T65hzh6V71PTy8kjOZoc-18" vertex="1" connectable="0">
          <mxGeometry x="41.21786082951962" y="9.425648821879463" width="130" height="125" as="geometry" />
        </mxCell>
        <mxCell id="T65hzh6V71PTy8kjOZoc-6" value="" style="whiteSpace=wrap;html=1;aspect=fixed;rounded=0;" parent="T65hzh6V71PTy8kjOZoc-16" vertex="1">
          <mxGeometry width="80" height="80" as="geometry" />
        </mxCell>
        <mxCell id="T65hzh6V71PTy8kjOZoc-9" value="&lt;font style=&quot;font-size: 14px;&quot;&gt;Feature 1&lt;/font&gt;" style="text;align=center;fontStyle=1;verticalAlign=middle;spacingLeft=3;spacingRight=3;strokeColor=none;rotatable=0;points=[[0,0.5],[1,0.5]];portConstraint=eastwest;html=1;" parent="T65hzh6V71PTy8kjOZoc-16" vertex="1">
          <mxGeometry width="80" height="26" as="geometry" />
        </mxCell>
        <mxCell id="T65hzh6V71PTy8kjOZoc-14" value="" style="group" parent="T65hzh6V71PTy8kjOZoc-16" vertex="1" connectable="0">
          <mxGeometry x="20" y="26" width="80" height="70" as="geometry" />
        </mxCell>
        <mxCell id="T65hzh6V71PTy8kjOZoc-7" value="" style="rounded=0;whiteSpace=wrap;html=1;" parent="T65hzh6V71PTy8kjOZoc-14" vertex="1">
          <mxGeometry width="80" height="70" as="geometry" />
        </mxCell>
        <mxCell id="T65hzh6V71PTy8kjOZoc-10" value="&lt;font style=&quot;font-size: 14px;&quot;&gt;Feature 2&lt;/font&gt;" style="text;align=center;fontStyle=1;verticalAlign=middle;spacingLeft=3;spacingRight=3;strokeColor=none;rotatable=0;points=[[0,0.5],[1,0.5]];portConstraint=eastwest;html=1;" parent="T65hzh6V71PTy8kjOZoc-14" vertex="1">
          <mxGeometry y="4" width="80" height="26" as="geometry" />
        </mxCell>
        <mxCell id="T65hzh6V71PTy8kjOZoc-15" value="" style="group" parent="T65hzh6V71PTy8kjOZoc-16" vertex="1" connectable="0">
          <mxGeometry x="40" y="60" width="90" height="65" as="geometry" />
        </mxCell>
        <mxCell id="T65hzh6V71PTy8kjOZoc-8" value="" style="rounded=0;whiteSpace=wrap;html=1;" parent="T65hzh6V71PTy8kjOZoc-15" vertex="1">
          <mxGeometry width="90" height="65" as="geometry" />
        </mxCell>
        <mxCell id="T65hzh6V71PTy8kjOZoc-11" value="&lt;font style=&quot;font-size: 14px;&quot;&gt;Feature n&lt;/font&gt;" style="text;align=center;fontStyle=1;verticalAlign=middle;spacingLeft=3;spacingRight=3;strokeColor=none;rotatable=0;points=[[0,0.5],[1,0.5]];portConstraint=eastwest;html=1;" parent="T65hzh6V71PTy8kjOZoc-15" vertex="1">
          <mxGeometry width="80" height="26" as="geometry" />
        </mxCell>
        <mxCell id="T65hzh6V71PTy8kjOZoc-20" value="&lt;font style=&quot;font-size: 18px;&quot;&gt;1&lt;/font&gt;" style="text;html=1;align=center;verticalAlign=middle;resizable=0;points=[];autosize=1;strokeColor=none;fillColor=none;" parent="1" vertex="1">
          <mxGeometry x="134" y="196" width="30" height="40" as="geometry" />
        </mxCell>
        <mxCell id="T65hzh6V71PTy8kjOZoc-21" value="&lt;font style=&quot;font-size: 18px;&quot;&gt;2&lt;/font&gt;" style="text;html=1;align=center;verticalAlign=middle;resizable=0;points=[];autosize=1;strokeColor=none;fillColor=none;" parent="1" vertex="1">
          <mxGeometry x="255" y="63" width="30" height="40" as="geometry" />
        </mxCell>
        <mxCell id="T65hzh6V71PTy8kjOZoc-22" value="" style="shape=curlyBracket;whiteSpace=wrap;html=1;rounded=1;flipH=1;labelPosition=right;verticalLabelPosition=middle;align=left;verticalAlign=middle;strokeColor=#FF0000;strokeWidth=2;" parent="1" vertex="1">
          <mxGeometry x="570" y="12" width="20" height="148" as="geometry" />
        </mxCell>
        <mxCell id="T65hzh6V71PTy8kjOZoc-23" value="" style="curved=1;endArrow=classic;html=1;rounded=0;exitX=0.1;exitY=0.5;exitDx=0;exitDy=0;exitPerimeter=0;flowAnimation=1;strokeColor=#005700;strokeWidth=2;" parent="1" source="T65hzh6V71PTy8kjOZoc-22" edge="1">
          <mxGeometry width="50" height="50" relative="1" as="geometry">
            <mxPoint x="590" y="90" as="sourcePoint" />
            <mxPoint x="670" y="160" as="targetPoint" />
            <Array as="points">
              <mxPoint x="640" y="90" />
              <mxPoint x="670" y="120" />
            </Array>
          </mxGeometry>
        </mxCell>
        <mxCell id="T65hzh6V71PTy8kjOZoc-24" value="&lt;font color=&quot;#3333ff&quot; style=&quot;font-size: 18px;&quot;&gt;3&lt;/font&gt;" style="text;html=1;align=center;verticalAlign=middle;resizable=0;points=[];autosize=1;strokeColor=none;fillColor=none;" parent="1" vertex="1">
          <mxGeometry x="642" y="69.57" width="30" height="40" as="geometry" />
        </mxCell>
        <mxCell id="T65hzh6V71PTy8kjOZoc-26" value="" style="curved=1;endArrow=classic;html=1;rounded=0;strokeColor=#005700;strokeWidth=2;dashed=1;flowAnimation=1;entryX=0.5;entryY=0;entryDx=0;entryDy=0;" parent="1" target="9o7t1i7i6RkKRqJhFKIF-7" edge="1">
          <mxGeometry width="50" height="50" relative="1" as="geometry">
            <mxPoint x="673" y="180" as="sourcePoint" />
            <mxPoint x="733" y="250" as="targetPoint" />
            <Array as="points">
              <mxPoint x="673" y="230" />
              <mxPoint x="693" y="220" />
              <mxPoint x="733" y="180" />
            </Array>
          </mxGeometry>
        </mxCell>
        <mxCell id="T65hzh6V71PTy8kjOZoc-27" value="&lt;font color=&quot;#3333ff&quot; style=&quot;font-size: 18px;&quot;&gt;4&lt;/font&gt;" style="text;html=1;align=center;verticalAlign=middle;resizable=0;points=[];autosize=1;strokeColor=none;fillColor=none;" parent="1" vertex="1">
          <mxGeometry x="735" y="203" width="30" height="40" as="geometry" />
        </mxCell>
        <mxCell id="T65hzh6V71PTy8kjOZoc-28" value="" style="curved=1;endArrow=classic;html=1;rounded=0;strokeColor=#005700;strokeWidth=2;dashed=1;flowAnimation=1;entryX=0.5;entryY=0;entryDx=0;entryDy=0;" parent="1" target="9o7t1i7i6RkKRqJhFKIF-8" edge="1">
          <mxGeometry width="50" height="50" relative="1" as="geometry">
            <mxPoint x="737" y="279" as="sourcePoint" />
            <mxPoint x="797" y="340" as="targetPoint" />
            <Array as="points">
              <mxPoint x="737" y="329" />
              <mxPoint x="757" y="319" />
              <mxPoint x="797" y="279" />
            </Array>
          </mxGeometry>
        </mxCell>
        <mxCell id="T65hzh6V71PTy8kjOZoc-29" value="" style="endArrow=none;html=1;rounded=0;exitX=1;exitY=0.5;exitDx=0;exitDy=0;" parent="1" source="T65hzh6V71PTy8kjOZoc-31" edge="1">
          <mxGeometry width="50" height="50" relative="1" as="geometry">
            <mxPoint x="240" y="380" as="sourcePoint" />
            <mxPoint x="1540" y="380" as="targetPoint" />
          </mxGeometry>
        </mxCell>
        <mxCell id="T65hzh6V71PTy8kjOZoc-30" value="&lt;font color=&quot;#3333ff&quot; style=&quot;font-size: 18px;&quot;&gt;5&lt;/font&gt;" style="text;html=1;align=center;verticalAlign=middle;resizable=0;points=[];autosize=1;strokeColor=none;fillColor=none;" parent="1" vertex="1">
          <mxGeometry x="792" y="293" width="30" height="40" as="geometry" />
        </mxCell>
        <mxCell id="T65hzh6V71PTy8kjOZoc-31" value="&lt;font style=&quot;font-size: 18px;&quot;&gt;release&lt;/font&gt;" style="rounded=1;whiteSpace=wrap;html=1;fillColor=#fff2cc;strokeColor=#d6b656;glass=0;shadow=1;dashed=1;strokeWidth=2;autosize=0;comic=0;" parent="1" vertex="1">
          <mxGeometry x="200" y="350" width="120" height="60" as="geometry" />
        </mxCell>
        <mxCell id="T65hzh6V71PTy8kjOZoc-34" value="UAT&amp;nbsp; Release" style="text;html=1;align=center;verticalAlign=middle;resizable=0;points=[];autosize=1;strokeColor=none;fillColor=none;" parent="1" vertex="1">
          <mxGeometry x="320" y="354" width="100" height="30" as="geometry" />
        </mxCell>
        <mxCell id="9o7t1i7i6RkKRqJhFKIF-7" value="" style="ellipse;whiteSpace=wrap;html=1;aspect=fixed;fillColor=#e1d5e7;strokeColor=#9673a6;dashed=1;shadow=0;" parent="1" vertex="1">
          <mxGeometry x="720" y="261" width="30" height="30" as="geometry" />
        </mxCell>
        <mxCell id="9o7t1i7i6RkKRqJhFKIF-8" value="" style="ellipse;whiteSpace=wrap;html=1;aspect=fixed;fillColor=#e1d5e7;strokeColor=#9673a6;dashed=1;shadow=0;" parent="1" vertex="1">
          <mxGeometry x="784" y="362" width="30" height="30" as="geometry" />
        </mxCell>
        <mxCell id="9o7t1i7i6RkKRqJhFKIF-32" value="" style="shape=curlyBracket;whiteSpace=wrap;html=1;rounded=1;flipH=1;labelPosition=right;verticalLabelPosition=middle;align=left;verticalAlign=middle;strokeColor=#FF0000;strokeWidth=2;size=0.5;" parent="1" vertex="1">
          <mxGeometry x="171" y="343.5" width="20" height="73" as="geometry" />
        </mxCell>
        <mxCell id="9o7t1i7i6RkKRqJhFKIF-33" value="&lt;font style=&quot;font-size: 18px;&quot;&gt;During Monthly Release Cut&lt;br&gt;example: release/3.24.6&lt;br&gt;&lt;/font&gt;" style="text;html=1;align=center;verticalAlign=middle;resizable=0;points=[];autosize=1;strokeColor=none;fillColor=none;" parent="1" vertex="1">
          <mxGeometry x="-66" y="350" width="250" height="60" as="geometry" />
        </mxCell>
        <mxCell id="9o7t1i7i6RkKRqJhFKIF-34" value="" style="shape=curlyBracket;whiteSpace=wrap;html=1;rounded=1;flipH=1;labelPosition=right;verticalLabelPosition=middle;align=left;verticalAlign=middle;strokeColor=#FF0000;strokeWidth=2;size=0.5;rotation=-180;" parent="1" vertex="1">
          <mxGeometry x="-70" y="339" width="20" height="73" as="geometry" />
        </mxCell>
        <mxCell id="9o7t1i7i6RkKRqJhFKIF-36" value="" style="curved=1;endArrow=classic;html=1;rounded=0;entryX=0;entryY=0.5;entryDx=0;entryDy=0;dashed=1;dashPattern=12 12;flowAnimation=1;" parent="1" target="9o7t1i7i6RkKRqJhFKIF-37" edge="1">
          <mxGeometry width="50" height="50" relative="1" as="geometry">
            <mxPoint x="787" y="384" as="sourcePoint" />
            <mxPoint x="-30" y="624" as="targetPoint" />
            <Array as="points">
              <mxPoint x="487" y="571" />
            </Array>
          </mxGeometry>
        </mxCell>
        <mxCell id="9o7t1i7i6RkKRqJhFKIF-37" value="&lt;span style=&quot;font-size: 18px;&quot;&gt;GA Release&lt;/span&gt;" style="rounded=1;whiteSpace=wrap;html=1;fillColor=#d5e8d4;strokeColor=#82b366;glass=0;shadow=1;dashed=1;strokeWidth=2;autosize=0;comic=0;" parent="1" vertex="1">
          <mxGeometry x="814" y="677" width="120" height="60" as="geometry" />
        </mxCell>
        <mxCell id="9o7t1i7i6RkKRqJhFKIF-39" value="&lt;font style=&quot;font-size: 18px;&quot;&gt;Beta release&lt;/font&gt;" style="rounded=1;whiteSpace=wrap;html=1;fillColor=#FFB570;strokeColor=#82b366;glass=0;shadow=1;dashed=1;strokeWidth=2;autosize=0;comic=0;" parent="1" vertex="1">
          <mxGeometry x="814" y="464" width="120" height="60" as="geometry" />
        </mxCell>
        <mxCell id="9o7t1i7i6RkKRqJhFKIF-59" value="" style="curved=1;endArrow=classic;html=1;rounded=0;entryX=0;entryY=0.5;entryDx=0;entryDy=0;exitX=0;exitY=1;exitDx=0;exitDy=0;dashed=1;dashPattern=12 12;flowAnimation=1;" parent="1" source="9o7t1i7i6RkKRqJhFKIF-8" target="9o7t1i7i6RkKRqJhFKIF-39" edge="1">
          <mxGeometry width="50" height="50" relative="1" as="geometry">
            <mxPoint x="150" y="420" as="sourcePoint" />
            <mxPoint x="250" y="650" as="targetPoint" />
            <Array as="points">
              <mxPoint x="653" y="485" />
            </Array>
          </mxGeometry>
        </mxCell>
        <mxCell id="doGeN-_oS0V0FqNeYwvH-8" value="" style="shape=curlyBracket;whiteSpace=wrap;html=1;rounded=1;flipH=1;labelPosition=right;verticalLabelPosition=middle;align=left;verticalAlign=middle;strokeColor=#FF0000;strokeWidth=2;size=0.5;" vertex="1" parent="1">
          <mxGeometry x="97" y="116.5" width="20" height="73" as="geometry" />
        </mxCell>
        <mxCell id="doGeN-_oS0V0FqNeYwvH-9" value="&lt;font style=&quot;font-size: 18px;&quot;&gt;Production Ready Code&lt;br&gt;&lt;/font&gt;" style="text;html=1;align=center;verticalAlign=middle;resizable=0;points=[];autosize=1;strokeColor=none;fillColor=none;" vertex="1" parent="1">
          <mxGeometry x="-98" y="136" width="209" height="34" as="geometry" />
        </mxCell>
        <mxCell id="doGeN-_oS0V0FqNeYwvH-10" value="" style="shape=curlyBracket;whiteSpace=wrap;html=1;rounded=1;flipH=1;labelPosition=right;verticalLabelPosition=middle;align=left;verticalAlign=middle;strokeColor=#FF0000;strokeWidth=2;size=0.5;rotation=-180;" vertex="1" parent="1">
          <mxGeometry x="-103" y="117" width="20" height="73" as="geometry" />
        </mxCell>
        <mxCell id="doGeN-_oS0V0FqNeYwvH-11" value="" style="endArrow=none;html=1;rounded=0;" edge="1" parent="1">
          <mxGeometry width="50" height="50" relative="1" as="geometry">
            <mxPoint x="115" y="152.29" as="sourcePoint" />
            <mxPoint x="194" y="152" as="targetPoint" />
          </mxGeometry>
        </mxCell>
        <mxCell id="9o7t1i7i6RkKRqJhFKIF-1" value="" style="ellipse;whiteSpace=wrap;html=1;aspect=fixed;fillColor=#d5e8d4;strokeColor=#82b366;dashed=1;shadow=0;" parent="1" vertex="1">
          <mxGeometry x="658" y="162" width="30" height="30" as="geometry" />
        </mxCell>
        <mxCell id="doGeN-_oS0V0FqNeYwvH-33" value="&lt;font style=&quot;font-size: 18px;&quot;&gt;Latest Features&lt;br&gt;&lt;b&gt;&lt;font color=&quot;#ff0000&quot;&gt;NOT&lt;/font&gt;&lt;/b&gt; In FIs Prod Env&lt;/font&gt;" style="text;html=1;align=center;verticalAlign=middle;whiteSpace=wrap;rounded=0;" vertex="1" parent="1">
          <mxGeometry x="793.5" y="417" width="173" height="47" as="geometry" />
        </mxCell>
        <mxCell id="doGeN-_oS0V0FqNeYwvH-34" value="" style="endArrow=none;html=1;rounded=0;" edge="1" parent="1" source="doGeN-_oS0V0FqNeYwvH-93">
          <mxGeometry width="50" height="50" relative="1" as="geometry">
            <mxPoint x="320" y="180" as="sourcePoint" />
            <mxPoint x="1520" y="180" as="targetPoint" />
          </mxGeometry>
        </mxCell>
        <mxCell id="doGeN-_oS0V0FqNeYwvH-55" value="&lt;h1&gt;GA Release&lt;/h1&gt;&lt;p&gt;&lt;font style=&quot;font-size: 18px;&quot;&gt;Stable Release&lt;/font&gt;&lt;/p&gt;&lt;p&gt;&lt;font style=&quot;font-size: 18px;&quot;&gt;In 2 FIs Prod Env&lt;/font&gt;&lt;/p&gt;" style="text;html=1;spacing=5;spacingTop=-20;whiteSpace=wrap;overflow=hidden;rounded=0;" vertex="1" parent="1">
          <mxGeometry x="603.5" y="620" width="190" height="120" as="geometry" />
        </mxCell>
        <mxCell id="doGeN-_oS0V0FqNeYwvH-67" value="&lt;font style=&quot;font-size: 18px;&quot;&gt;Bug Fixes in Features&lt;/font&gt;" style="text;html=1;align=center;verticalAlign=middle;whiteSpace=wrap;rounded=0;" vertex="1" parent="1">
          <mxGeometry x="1200" y="851.5" width="257" height="30" as="geometry" />
        </mxCell>
        <mxCell id="doGeN-_oS0V0FqNeYwvH-69" value="" style="group" vertex="1" connectable="0" parent="1">
          <mxGeometry x="980.0021391704804" y="760" width="199.9978608295196" height="153" as="geometry" />
        </mxCell>
        <mxCell id="doGeN-_oS0V0FqNeYwvH-41" value="" style="group;rounded=0;glass=0;fillColor=none;" vertex="1" connectable="0" parent="doGeN-_oS0V0FqNeYwvH-69">
          <mxGeometry y="3.004351178120487" width="171.21786082951962" height="140.85129764375893" as="geometry" />
        </mxCell>
        <mxCell id="doGeN-_oS0V0FqNeYwvH-42" value="" style="shape=requiredInterface;html=1;verticalLabelPosition=bottom;sketch=0;rotation=-181;strokeColor=#3333FF;" vertex="1" parent="doGeN-_oS0V0FqNeYwvH-41">
          <mxGeometry x="1.2178608295196227" y="0.42564882187946296" width="50" height="140" as="geometry" />
        </mxCell>
        <mxCell id="doGeN-_oS0V0FqNeYwvH-43" value="" style="group" vertex="1" connectable="0" parent="doGeN-_oS0V0FqNeYwvH-41">
          <mxGeometry x="41.21786082951962" y="9.425648821879463" width="130" height="125" as="geometry" />
        </mxCell>
        <mxCell id="doGeN-_oS0V0FqNeYwvH-44" value="" style="whiteSpace=wrap;html=1;aspect=fixed;rounded=0;" vertex="1" parent="doGeN-_oS0V0FqNeYwvH-43">
          <mxGeometry width="80" height="80" as="geometry" />
        </mxCell>
        <mxCell id="doGeN-_oS0V0FqNeYwvH-45" value="&lt;font style=&quot;font-size: 14px;&quot;&gt;Feature 1&lt;/font&gt;" style="text;align=center;fontStyle=1;verticalAlign=middle;spacingLeft=3;spacingRight=3;strokeColor=none;rotatable=0;points=[[0,0.5],[1,0.5]];portConstraint=eastwest;html=1;" vertex="1" parent="doGeN-_oS0V0FqNeYwvH-43">
          <mxGeometry width="80" height="26" as="geometry" />
        </mxCell>
        <mxCell id="doGeN-_oS0V0FqNeYwvH-46" value="" style="group" vertex="1" connectable="0" parent="doGeN-_oS0V0FqNeYwvH-43">
          <mxGeometry x="20" y="26" width="80" height="70" as="geometry" />
        </mxCell>
        <mxCell id="doGeN-_oS0V0FqNeYwvH-47" value="" style="rounded=0;whiteSpace=wrap;html=1;" vertex="1" parent="doGeN-_oS0V0FqNeYwvH-46">
          <mxGeometry width="80" height="70" as="geometry" />
        </mxCell>
        <mxCell id="doGeN-_oS0V0FqNeYwvH-48" value="&lt;font style=&quot;font-size: 14px;&quot;&gt;Feature 2&lt;/font&gt;" style="text;align=center;fontStyle=1;verticalAlign=middle;spacingLeft=3;spacingRight=3;strokeColor=none;rotatable=0;points=[[0,0.5],[1,0.5]];portConstraint=eastwest;html=1;" vertex="1" parent="doGeN-_oS0V0FqNeYwvH-46">
          <mxGeometry y="4" width="80" height="26" as="geometry" />
        </mxCell>
        <mxCell id="doGeN-_oS0V0FqNeYwvH-49" value="" style="group" vertex="1" connectable="0" parent="doGeN-_oS0V0FqNeYwvH-43">
          <mxGeometry x="40" y="60" width="90" height="65" as="geometry" />
        </mxCell>
        <mxCell id="doGeN-_oS0V0FqNeYwvH-50" value="" style="rounded=0;whiteSpace=wrap;html=1;" vertex="1" parent="doGeN-_oS0V0FqNeYwvH-49">
          <mxGeometry width="90" height="65" as="geometry" />
        </mxCell>
        <mxCell id="doGeN-_oS0V0FqNeYwvH-51" value="&lt;font style=&quot;font-size: 14px;&quot;&gt;Feature n&lt;/font&gt;" style="text;align=center;fontStyle=1;verticalAlign=middle;spacingLeft=3;spacingRight=3;strokeColor=none;rotatable=0;points=[[0,0.5],[1,0.5]];portConstraint=eastwest;html=1;" vertex="1" parent="doGeN-_oS0V0FqNeYwvH-49">
          <mxGeometry width="80" height="26" as="geometry" />
        </mxCell>
        <mxCell id="doGeN-_oS0V0FqNeYwvH-63" value="" style="shape=curlyBracket;whiteSpace=wrap;html=1;rounded=1;flipH=1;labelPosition=right;verticalLabelPosition=middle;align=left;verticalAlign=middle;strokeColor=#FF0000;strokeWidth=2;size=0.5;rotation=0;" vertex="1" parent="doGeN-_oS0V0FqNeYwvH-69">
          <mxGeometry x="179.9978608295196" width="20" height="153" as="geometry" />
        </mxCell>
        <mxCell id="doGeN-_oS0V0FqNeYwvH-76" value="" style="curved=1;endArrow=classic;html=1;rounded=0;entryX=1;entryY=0.5;entryDx=0;entryDy=0;entryPerimeter=0;exitX=0.343;exitY=1.064;exitDx=0;exitDy=0;exitPerimeter=0;dashed=1;strokeColor=#FF0000;strokeWidth=2;flowAnimation=1;" edge="1" parent="1" source="9o7t1i7i6RkKRqJhFKIF-37" target="doGeN-_oS0V0FqNeYwvH-42">
          <mxGeometry width="50" height="50" relative="1" as="geometry">
            <mxPoint x="850" y="640" as="sourcePoint" />
            <mxPoint x="990" y="840" as="targetPoint" />
            <Array as="points">
              <mxPoint x="830" y="760" />
            </Array>
          </mxGeometry>
        </mxCell>
        <mxCell id="doGeN-_oS0V0FqNeYwvH-78" value="&lt;font style=&quot;font-size: 18px;&quot;&gt;Issues Reported in Features by FI&lt;br&gt;&lt;b&gt;&lt;font color=&quot;#ff3333&quot;&gt;NO&lt;/font&gt;&lt;/b&gt; Customization in GA&lt;br&gt;&lt;/font&gt;" style="text;html=1;align=center;verticalAlign=middle;whiteSpace=wrap;rounded=0;" vertex="1" parent="1">
          <mxGeometry x="690" y="780" width="218" height="52" as="geometry" />
        </mxCell>
        <mxCell id="doGeN-_oS0V0FqNeYwvH-82" value="" style="edgeStyle=orthogonalEdgeStyle;rounded=0;orthogonalLoop=1;jettySize=auto;html=1;endArrow=none;endFill=0;" edge="1" parent="1" source="doGeN-_oS0V0FqNeYwvH-81">
          <mxGeometry relative="1" as="geometry">
            <mxPoint x="934" y="494" as="sourcePoint" />
            <mxPoint x="1550" y="494" as="targetPoint" />
          </mxGeometry>
        </mxCell>
        <mxCell id="doGeN-_oS0V0FqNeYwvH-83" value="" style="ellipse;whiteSpace=wrap;html=1;aspect=fixed;fillColor=#ffe6cc;strokeColor=#d79b00;dashed=1;shadow=0;" vertex="1" parent="1">
          <mxGeometry x="1250" y="821.5" width="30" height="30" as="geometry" />
        </mxCell>
        <mxCell id="doGeN-_oS0V0FqNeYwvH-88" value="" style="edgeStyle=orthogonalEdgeStyle;rounded=0;orthogonalLoop=1;jettySize=auto;html=1;endArrow=none;endFill=0;" edge="1" parent="1" source="9o7t1i7i6RkKRqJhFKIF-39" target="doGeN-_oS0V0FqNeYwvH-81">
          <mxGeometry relative="1" as="geometry">
            <mxPoint x="934" y="494" as="sourcePoint" />
            <mxPoint x="1550" y="494" as="targetPoint" />
          </mxGeometry>
        </mxCell>
        <mxCell id="doGeN-_oS0V0FqNeYwvH-81" value="" style="ellipse;whiteSpace=wrap;html=1;aspect=fixed;fillColor=#ffe6cc;strokeColor=#d79b00;dashed=1;shadow=0;" vertex="1" parent="1">
          <mxGeometry x="1335.61" y="479" width="30" height="30" as="geometry" />
        </mxCell>
        <mxCell id="doGeN-_oS0V0FqNeYwvH-90" value="" style="endArrow=none;html=1;rounded=0;jumpStyle=none;" edge="1" parent="1">
          <mxGeometry width="50" height="50" relative="1" as="geometry">
            <mxPoint x="935" y="706.29" as="sourcePoint" />
            <mxPoint x="1535" y="706.29" as="targetPoint" />
          </mxGeometry>
        </mxCell>
        <mxCell id="doGeN-_oS0V0FqNeYwvH-80" value="" style="ellipse;whiteSpace=wrap;html=1;aspect=fixed;fillColor=#ffe6cc;strokeColor=#d79b00;dashed=1;shadow=0;" vertex="1" parent="1">
          <mxGeometry x="1250" y="690" width="30" height="30" as="geometry" />
        </mxCell>
        <mxCell id="doGeN-_oS0V0FqNeYwvH-91" value="" style="endArrow=classic;html=1;rounded=0;flowAnimation=1;dashed=1;strokeWidth=3;entryX=0.5;entryY=1;entryDx=0;entryDy=0;exitX=0.5;exitY=0;exitDx=0;exitDy=0;" edge="1" parent="1" target="doGeN-_oS0V0FqNeYwvH-80">
          <mxGeometry width="50" height="50" relative="1" as="geometry">
            <mxPoint x="1265" y="821.5000000000002" as="sourcePoint" />
            <mxPoint x="1269" y="748" as="targetPoint" />
            <Array as="points">
              <mxPoint x="1265" y="760" />
            </Array>
          </mxGeometry>
        </mxCell>
        <mxCell id="doGeN-_oS0V0FqNeYwvH-94" value="" style="endArrow=none;html=1;rounded=0;" edge="1" parent="1" target="doGeN-_oS0V0FqNeYwvH-93">
          <mxGeometry width="50" height="50" relative="1" as="geometry">
            <mxPoint x="320" y="180" as="sourcePoint" />
            <mxPoint x="1520" y="180" as="targetPoint" />
          </mxGeometry>
        </mxCell>
        <mxCell id="doGeN-_oS0V0FqNeYwvH-93" value="" style="ellipse;whiteSpace=wrap;html=1;aspect=fixed;fillColor=#ffe6cc;strokeColor=#d79b00;dashed=1;shadow=0;" vertex="1" parent="1">
          <mxGeometry x="1413" y="165" width="30" height="30" as="geometry" />
        </mxCell>
        <mxCell id="doGeN-_oS0V0FqNeYwvH-95" value="" style="group" vertex="1" connectable="0" parent="1">
          <mxGeometry x="970.0021391704804" y="520" width="199.9978608295196" height="153" as="geometry" />
        </mxCell>
        <mxCell id="doGeN-_oS0V0FqNeYwvH-96" value="" style="group;rounded=0;glass=0;fillColor=none;" vertex="1" connectable="0" parent="doGeN-_oS0V0FqNeYwvH-95">
          <mxGeometry y="3.004351178120487" width="171.21786082951962" height="140.85129764375893" as="geometry" />
        </mxCell>
        <mxCell id="doGeN-_oS0V0FqNeYwvH-97" value="" style="shape=requiredInterface;html=1;verticalLabelPosition=bottom;sketch=0;rotation=-181;strokeColor=#3333FF;" vertex="1" parent="doGeN-_oS0V0FqNeYwvH-96">
          <mxGeometry x="1.2178608295196227" y="0.42564882187946296" width="50" height="140" as="geometry" />
        </mxCell>
        <mxCell id="doGeN-_oS0V0FqNeYwvH-98" value="" style="group" vertex="1" connectable="0" parent="doGeN-_oS0V0FqNeYwvH-96">
          <mxGeometry x="41.21786082951962" y="9.425648821879463" width="130" height="125" as="geometry" />
        </mxCell>
        <mxCell id="doGeN-_oS0V0FqNeYwvH-99" value="" style="whiteSpace=wrap;html=1;aspect=fixed;rounded=0;" vertex="1" parent="doGeN-_oS0V0FqNeYwvH-98">
          <mxGeometry width="80" height="80" as="geometry" />
        </mxCell>
        <mxCell id="doGeN-_oS0V0FqNeYwvH-100" value="&lt;font style=&quot;font-size: 14px;&quot;&gt;Feature 1&lt;/font&gt;" style="text;align=center;fontStyle=1;verticalAlign=middle;spacingLeft=3;spacingRight=3;strokeColor=none;rotatable=0;points=[[0,0.5],[1,0.5]];portConstraint=eastwest;html=1;" vertex="1" parent="doGeN-_oS0V0FqNeYwvH-98">
          <mxGeometry width="80" height="26" as="geometry" />
        </mxCell>
        <mxCell id="doGeN-_oS0V0FqNeYwvH-101" value="" style="group" vertex="1" connectable="0" parent="doGeN-_oS0V0FqNeYwvH-98">
          <mxGeometry x="20" y="26" width="80" height="70" as="geometry" />
        </mxCell>
        <mxCell id="doGeN-_oS0V0FqNeYwvH-102" value="" style="rounded=0;whiteSpace=wrap;html=1;" vertex="1" parent="doGeN-_oS0V0FqNeYwvH-101">
          <mxGeometry width="80" height="70" as="geometry" />
        </mxCell>
        <mxCell id="doGeN-_oS0V0FqNeYwvH-103" value="&lt;font style=&quot;font-size: 14px;&quot;&gt;Feature 2&lt;/font&gt;" style="text;align=center;fontStyle=1;verticalAlign=middle;spacingLeft=3;spacingRight=3;strokeColor=none;rotatable=0;points=[[0,0.5],[1,0.5]];portConstraint=eastwest;html=1;" vertex="1" parent="doGeN-_oS0V0FqNeYwvH-101">
          <mxGeometry y="4" width="80" height="26" as="geometry" />
        </mxCell>
        <mxCell id="doGeN-_oS0V0FqNeYwvH-104" value="" style="group" vertex="1" connectable="0" parent="doGeN-_oS0V0FqNeYwvH-98">
          <mxGeometry x="40" y="60" width="90" height="65" as="geometry" />
        </mxCell>
        <mxCell id="doGeN-_oS0V0FqNeYwvH-105" value="" style="rounded=0;whiteSpace=wrap;html=1;" vertex="1" parent="doGeN-_oS0V0FqNeYwvH-104">
          <mxGeometry width="90" height="65" as="geometry" />
        </mxCell>
        <mxCell id="doGeN-_oS0V0FqNeYwvH-106" value="&lt;font style=&quot;font-size: 14px;&quot;&gt;Feature n&lt;/font&gt;" style="text;align=center;fontStyle=1;verticalAlign=middle;spacingLeft=3;spacingRight=3;strokeColor=none;rotatable=0;points=[[0,0.5],[1,0.5]];portConstraint=eastwest;html=1;" vertex="1" parent="doGeN-_oS0V0FqNeYwvH-104">
          <mxGeometry width="80" height="26" as="geometry" />
        </mxCell>
        <mxCell id="doGeN-_oS0V0FqNeYwvH-107" value="" style="shape=curlyBracket;whiteSpace=wrap;html=1;rounded=1;flipH=1;labelPosition=right;verticalLabelPosition=middle;align=left;verticalAlign=middle;strokeColor=#FF0000;strokeWidth=2;size=0.5;rotation=0;" vertex="1" parent="doGeN-_oS0V0FqNeYwvH-95">
          <mxGeometry x="179.9978608295196" width="20" height="153" as="geometry" />
        </mxCell>
        <mxCell id="doGeN-_oS0V0FqNeYwvH-109" value="" style="endArrow=classic;html=1;rounded=1;jumpStyle=arc;entryX=0.5;entryY=1;entryDx=0;entryDy=0;dashed=1;strokeWidth=3;flowAnimation=1;endFill=1;curved=0;exitX=1;exitY=0;exitDx=0;exitDy=0;" edge="1" parent="1" source="doGeN-_oS0V0FqNeYwvH-83" target="doGeN-_oS0V0FqNeYwvH-81">
          <mxGeometry width="50" height="50" relative="1" as="geometry">
            <mxPoint x="1350" y="810" as="sourcePoint" />
            <mxPoint x="1349.9" y="620" as="targetPoint" />
            <Array as="points">
              <mxPoint x="1360" y="826" />
            </Array>
          </mxGeometry>
        </mxCell>
        <mxCell id="doGeN-_oS0V0FqNeYwvH-113" value="" style="endArrow=classic;html=1;rounded=0;entryX=0.5;entryY=1;entryDx=0;entryDy=0;jumpStyle=arc;endFill=1;dashed=1;strokeWidth=3;flowAnimation=1;" edge="1" parent="1" target="doGeN-_oS0V0FqNeYwvH-93">
          <mxGeometry width="50" height="50" relative="1" as="geometry">
            <mxPoint x="1290" y="840" as="sourcePoint" />
            <mxPoint x="1440" y="740" as="targetPoint" />
            <Array as="points">
              <mxPoint x="1440" y="840" />
            </Array>
          </mxGeometry>
        </mxCell>
        <mxCell id="doGeN-_oS0V0FqNeYwvH-114" value="" style="endArrow=none;html=1;rounded=0;dashed=1;strokeWidth=3;flowAnimation=1;" edge="1" parent="1">
          <mxGeometry width="50" height="50" relative="1" as="geometry">
            <mxPoint x="1180" y="837.79" as="sourcePoint" />
            <mxPoint x="1250" y="838" as="targetPoint" />
          </mxGeometry>
        </mxCell>
        <mxCell id="doGeN-_oS0V0FqNeYwvH-115" value="" style="curved=1;endArrow=classic;html=1;rounded=0;exitX=0.423;exitY=1.048;exitDx=0;exitDy=0;exitPerimeter=0;" edge="1" parent="1" source="9o7t1i7i6RkKRqJhFKIF-39">
          <mxGeometry width="50" height="50" relative="1" as="geometry">
            <mxPoint x="860" y="560" as="sourcePoint" />
            <mxPoint x="970" y="600" as="targetPoint" />
            <Array as="points">
              <mxPoint x="860" y="590" />
              <mxPoint x="920" y="600" />
            </Array>
          </mxGeometry>
        </mxCell>
        <mxCell id="doGeN-_oS0V0FqNeYwvH-116" value="&lt;font style=&quot;font-size: 18px;&quot;&gt;Issues Reported&lt;/font&gt;" style="text;html=1;align=center;verticalAlign=middle;whiteSpace=wrap;rounded=0;" vertex="1" parent="1">
          <mxGeometry x="771.5" y="540" width="105" height="52" as="geometry" />
        </mxCell>
        <mxCell id="doGeN-_oS0V0FqNeYwvH-117" value="" style="ellipse;whiteSpace=wrap;html=1;aspect=fixed;fillColor=#ffe6cc;strokeColor=#d79b00;dashed=1;shadow=0;" vertex="1" parent="1">
          <mxGeometry x="1201" y="581" width="30" height="30" as="geometry" />
        </mxCell>
        <mxCell id="doGeN-_oS0V0FqNeYwvH-118" value="" style="endArrow=none;html=1;rounded=0;dashed=1;strokeWidth=3;flowAnimation=1;" edge="1" parent="1">
          <mxGeometry width="50" height="50" relative="1" as="geometry">
            <mxPoint x="1170" y="597.29" as="sourcePoint" />
            <mxPoint x="1200" y="597" as="targetPoint" />
          </mxGeometry>
        </mxCell>
        <mxCell id="doGeN-_oS0V0FqNeYwvH-119" value="" style="ellipse;whiteSpace=wrap;html=1;aspect=fixed;fillColor=#ffe6cc;strokeColor=#d79b00;dashed=1;shadow=0;" vertex="1" parent="1">
          <mxGeometry x="1201" y="479.5" width="30" height="30" as="geometry" />
        </mxCell>
        <mxCell id="doGeN-_oS0V0FqNeYwvH-120" value="" style="endArrow=classic;html=1;rounded=0;flowAnimation=1;dashed=1;strokeWidth=3;entryX=0.5;entryY=1;entryDx=0;entryDy=0;" edge="1" parent="1" target="doGeN-_oS0V0FqNeYwvH-119">
          <mxGeometry width="50" height="50" relative="1" as="geometry">
            <mxPoint x="1216" y="580" as="sourcePoint" />
            <mxPoint x="1220" y="537.5" as="targetPoint" />
            <Array as="points">
              <mxPoint x="1216" y="549.5" />
            </Array>
          </mxGeometry>
        </mxCell>
        <mxCell id="doGeN-_oS0V0FqNeYwvH-122" value="" style="ellipse;whiteSpace=wrap;html=1;aspect=fixed;fillColor=#ffe6cc;strokeColor=#d79b00;dashed=1;shadow=0;" vertex="1" parent="1">
          <mxGeometry x="1239.61" y="165" width="30" height="30" as="geometry" />
        </mxCell>
        <mxCell id="doGeN-_oS0V0FqNeYwvH-123" value="" style="endArrow=classic;html=1;rounded=1;jumpStyle=arc;entryX=0.5;entryY=1;entryDx=0;entryDy=0;dashed=1;strokeWidth=3;flowAnimation=1;endFill=1;curved=0;exitX=1;exitY=0.5;exitDx=0;exitDy=0;" edge="1" parent="1" target="doGeN-_oS0V0FqNeYwvH-122" source="doGeN-_oS0V0FqNeYwvH-117">
          <mxGeometry width="50" height="50" relative="1" as="geometry">
            <mxPoint x="1180" y="512" as="sourcePoint" />
            <mxPoint x="1253.9" y="306" as="targetPoint" />
            <Array as="points">
              <mxPoint x="1260" y="596" />
            </Array>
          </mxGeometry>
        </mxCell>
      </root>
    </mxGraphModel>
  </diagram>
</mxfile>
